<svg width="26" height="26" viewBox="0 0 26 26" fill="none" xmlns="http://www.w3.org/2000/svg">
<path d="M12.5894 6.98853V15.1673C12.5894 16.4334 12.2301 17.4087 11.5114 18.0932C10.8042 18.7776 9.84604 19.1198 8.63691 19.1198C7.37074 19.1198 6.35553 18.7605 5.59126 18.0418C4.827 17.3232 4.44487 16.3023 4.44487 14.9791H7.35363C7.35363 15.481 7.45629 15.8631 7.66162 16.1255C7.86694 16.3764 8.16352 16.5019 8.55135 16.5019C8.90497 16.5019 9.17873 16.3878 9.37265 16.1597C9.56657 15.9315 9.66353 15.6007 9.66353 15.1673V6.98853H12.5894ZM21.5046 6.98853V19H18.5787V6.98853H21.5046Z" fill="#F93889"/>
<path d="M16.4845 11.7724L16.8952 12.5204L15.9932 12.8357L16.8952 13.1437L16.4552 13.921L15.7219 13.2757L15.9052 14.229H15.0473L15.2233 13.2757L14.4973 13.9283L14.0426 13.1363L14.9446 12.821L14.05 12.5277L14.468 11.7724L15.2306 12.4104L15.0399 11.4424H15.9126L15.7219 12.4104L16.4845 11.7724Z" fill="#F93889"/>
</svg>
