<svg width="40" height="40" viewBox="0 0 40 40" fill="none" xmlns="http://www.w3.org/2000/svg">
<rect width="40" height="40" rx="4" fill="#E7F4F1"/>
<path fill-rule="evenodd" clip-rule="evenodd" d="M32 20C32 26.6275 26.6275 32.0001 20 32.0001C13.3726 32.0001 8 26.6275 8 20C8 13.3726 13.3726 8 20 8C26.6275 8 32 13.3726 32 20ZM16.8 17.9556C17.9291 17.9556 18.8444 17.0403 18.8444 15.9111C18.8444 14.7821 17.9291 13.8667 16.8 13.8667C15.6709 13.8667 14.7555 14.7821 14.7555 15.9111C14.7555 17.0403 15.6709 17.9556 16.8 17.9556ZM23.2 17.9556C24.3291 17.9556 25.2445 17.0403 25.2445 15.9111C25.2445 14.7821 24.3291 13.8667 23.2 13.8667C22.0709 13.8667 21.1556 14.7821 21.1556 15.9111C21.1556 17.0403 22.0709 17.9556 23.2 17.9556ZM20.0889 24.1778C17.3398 24.1778 15.1111 21.9492 15.1111 19.2001H12.9778C12.9778 23.1274 16.1616 26.3112 20.0889 26.3112C24.0163 26.3112 27.2 23.1274 27.2 19.2001H25.0666C25.0666 21.9492 22.8381 24.1778 20.0889 24.1778Z" fill="#EE7A55"/>
</svg>
