<svg width="40" height="40" viewBox="0 0 40 40" fill="none" xmlns="http://www.w3.org/2000/svg">
<rect width="40" height="40" rx="4" fill="#CF4747"/>
<g clip-path="url(#clip0_31_543)">
<rect x="7" y="11" width="27" height="18" fill="#E6E6E6"/>
<path d="M21.1426 17.539C20.7709 17.2272 20.2291 17.2272 19.8574 17.539L7.10585 28.2338C6.39044 28.8338 6.81473 30 7.74846 30H33.2515C34.1853 30 34.6096 28.8338 33.8942 28.2338L21.1426 17.539Z" fill="#DBD8D8"/>
<path d="M21.6402 23.4665C21.2693 23.7756 20.7307 23.7756 20.3598 23.4665L5.12187 10.7682C4.40335 10.1695 4.82676 9 5.76205 9H36.2379C37.1732 9 37.5966 10.1695 36.8781 10.7682L21.6402 23.4665Z" fill="white"/>
</g>
<defs>
<clipPath id="clip0_31_543">
<rect x="7" y="10" width="27" height="19" rx="2" fill="white"/>
</clipPath>
</defs>
</svg>
