<svg width="40" height="40" viewBox="0 0 40 40" fill="none" xmlns="http://www.w3.org/2000/svg">
<rect width="40" height="40" rx="4" fill="url(#paint0_linear_31_540)"/>
<path fill-rule="evenodd" clip-rule="evenodd" d="M20.0096 8.52774C13.5529 8.52774 8.33325 13.7858 8.33325 20.2908C8.33325 25.4906 11.6776 29.8921 16.3172 31.4499C16.8973 31.567 17.1097 31.1968 17.1097 30.8854C17.1097 30.6127 17.0906 29.678 17.0906 28.704C13.8425 29.4053 13.1662 27.3018 13.1662 27.3018C12.6442 25.9385 11.8708 25.5881 11.8708 25.5881C10.8077 24.8675 11.9482 24.8675 11.9482 24.8675C13.1274 24.9454 13.7462 26.075 13.7462 26.075C14.79 27.8665 16.4718 27.3603 17.1485 27.0487C17.245 26.2891 17.5545 25.7633 17.8832 25.4712C15.2926 25.1985 12.567 24.1859 12.567 19.6675C12.567 18.3821 13.0306 17.3305 13.7653 16.5126C13.6494 16.2206 13.2434 15.0129 13.8815 13.3965C13.8815 13.3965 14.8674 13.0848 17.0904 14.6039C18.0421 14.3465 19.0236 14.2155 20.0096 14.2144C20.9955 14.2144 22.0005 14.3508 22.9285 14.6039C25.1518 13.0848 26.1376 13.3965 26.1376 13.3965C26.7758 15.0129 26.3695 16.2206 26.2536 16.5126C27.0076 17.3305 27.4522 18.3821 27.4522 19.6675C27.4522 24.1859 24.7266 25.1789 22.1166 25.4712C22.5421 25.8412 22.9092 26.5422 22.9092 27.6524C22.9092 29.2298 22.8901 30.4958 22.8901 30.8852C22.8901 31.1968 23.1028 31.567 23.6826 31.4502C28.3221 29.8919 31.6665 25.4906 31.6665 20.2908C31.6857 13.7858 26.4469 8.52774 20.0096 8.52774Z" fill="white"/>
<defs>
<linearGradient id="paint0_linear_31_540" x1="2.5" y1="-4.5" x2="34" y2="40" gradientUnits="userSpaceOnUse">
<stop stop-color="#0B1820"/>
<stop offset="1" stop-color="#40118D"/>
</linearGradient>
</defs>
</svg>
