<svg width="40" height="40" viewBox="0 0 40 40" fill="none" xmlns="http://www.w3.org/2000/svg">
<rect width="40" height="40" rx="4" fill="#0076B8"/>
<path d="M30.5 11.0441V28.9559C30.5 29.3654 30.3373 29.7582 30.0477 30.0477C29.7582 30.3373 29.3654 30.5 28.9559 30.5H11.0441C10.6346 30.5 10.2418 30.3373 9.95226 30.0477C9.66268 29.7582 9.5 29.3654 9.5 28.9559V11.0441C9.5 10.6346 9.66268 10.2418 9.95226 9.95226C10.2418 9.66268 10.6346 9.5 11.0441 9.5H28.9559C29.3654 9.5 29.7582 9.66268 30.0477 9.95226C30.3373 10.2418 30.5 10.6346 30.5 11.0441ZM15.6765 17.5294H12.5882V27.4118H15.6765V17.5294ZM15.9544 14.1324C15.956 13.8988 15.9116 13.6671 15.8237 13.4507C15.7359 13.2342 15.6062 13.0372 15.4422 12.8709C15.2781 12.7046 15.0829 12.5722 14.8677 12.4813C14.6525 12.3904 14.4215 12.3428 14.1879 12.3412H14.1324C13.6573 12.3412 13.2017 12.5299 12.8658 12.8658C12.5299 13.2017 12.3412 13.6573 12.3412 14.1324C12.3412 14.6074 12.5299 15.063 12.8658 15.3989C13.2017 15.7348 13.6573 15.9235 14.1324 15.9235C14.366 15.9293 14.5984 15.8889 14.8164 15.8048C15.0345 15.7207 15.2338 15.5944 15.403 15.4333C15.5722 15.2721 15.708 15.0791 15.8026 14.8655C15.8972 14.6518 15.9488 14.4216 15.9544 14.1879V14.1324ZM27.4118 21.4082C27.4118 18.4374 25.5218 17.2824 23.6441 17.2824C23.0293 17.2516 22.4172 17.3825 21.8689 17.6621C21.3205 17.9417 20.855 18.3602 20.5188 18.8759H20.4324V17.5294H17.5294V27.4118H20.6176V22.1556C20.573 21.6173 20.7426 21.0831 21.0895 20.6691C21.4365 20.255 21.9328 19.9946 22.4706 19.9444H22.5879C23.57 19.9444 24.2988 20.5621 24.2988 22.1185V27.4118H27.3871L27.4118 21.4082Z" fill="white"/>
</svg>
