<svg width="107" height="26" viewBox="0 0 107 26" fill="none" xmlns="http://www.w3.org/2000/svg">
<path d="M8.5894 6.98853V15.1673C8.5894 16.4334 8.23008 17.4087 7.51145 18.0932C6.80422 18.7776 5.84604 19.1198 4.63691 19.1198C3.37074 19.1198 2.35553 18.7605 1.59126 18.0418C0.827001 17.3232 0.444869 16.3023 0.444869 14.9791H3.35363C3.35363 15.481 3.45629 15.8631 3.66162 16.1255C3.86694 16.3764 4.16352 16.5019 4.55135 16.5019C4.90497 16.5019 5.17873 16.3878 5.37265 16.1597C5.56657 15.9315 5.66353 15.6007 5.66353 15.1673V6.98853H8.5894ZM17.5046 6.98853V19H14.5787V6.98853H17.5046Z" fill="#EC3D87"/>
<path d="M12.4845 11.7724L12.8952 12.5203L11.9932 12.8357L12.8952 13.1437L12.4552 13.921L11.7219 13.2756L11.9052 14.2289H11.0473L11.2233 13.2756L10.4973 13.9283L10.0426 13.1363L10.9446 12.821L10.05 12.5277L10.468 11.7724L11.2306 12.4104L11.0399 11.4424H11.9126L11.7219 12.4104L12.4845 11.7724Z" fill="#EC3D87"/>
<path d="M33.664 7.728V14.588C33.664 15.54 33.3887 16.282 32.838 16.814C32.2873 17.3367 31.55 17.598 30.626 17.598C29.6927 17.598 28.9367 17.3273 28.358 16.786C27.7887 16.2447 27.504 15.4887 27.504 14.518H29.464C29.4733 14.938 29.5713 15.2647 29.758 15.498C29.954 15.7313 30.234 15.848 30.598 15.848C30.9527 15.848 31.2233 15.736 31.41 15.512C31.5967 15.288 31.69 14.98 31.69 14.588V7.728H33.664ZM37.9104 9.31V11.76H41.2004V13.314H37.9104V15.904H41.6204V17.5H35.9504V7.714H41.6204V9.31H37.9104ZM51.7595 17.5H49.7995L45.3615 10.794V17.5H43.4015V7.714H45.3615L49.7995 14.434V7.714H51.7595V17.5ZM62.0545 17.5H60.0945L55.6565 10.794V17.5H53.6965V7.714H55.6565L60.0945 14.434V7.714H62.0545V17.5ZM69.9834 15.638H66.0914L65.4474 17.5H63.3894L66.9034 7.714H69.1854L72.6994 17.5H70.6274L69.9834 15.638ZM69.4514 14.07L68.0374 9.982L66.6234 14.07H69.4514ZM85.4548 7.728V17.5H83.4948V13.342H79.3088V17.5H77.3488V7.728H79.3088V11.746H83.4948V7.728H85.4548ZM93.376 15.638H89.484L88.84 17.5H86.782L90.296 7.714H92.578L96.092 17.5H94.02L93.376 15.638ZM92.844 14.07L91.43 9.982L90.016 14.07H92.844ZM105.763 17.5H103.803L99.3655 10.794V17.5H97.4055V7.714H99.3655L103.803 14.434V7.714H105.763V17.5Z" fill="#F8F8F8"/>
</svg>
